<mxfile host="app.diagrams.net" modified="2024-04-24T02:43:13.579Z" agent="Mozilla/5.0 (Windows NT 10.0; Win64; x64) AppleWebKit/537.36 (KHTML, like Gecko) Chrome/123.0.0.0 Safari/537.36" etag="S5i6LDJeOjfKI85IXhNG" version="24.2.8" type="device">
  <diagram name="페이지-1" id="krOZKQkNodaAjx7xnJap">
    <mxGraphModel dx="1230" dy="628" grid="0" gridSize="10" guides="1" tooltips="1" connect="1" arrows="1" fold="1" page="0" pageScale="1" pageWidth="827" pageHeight="1169" math="0" shadow="0">
      <root>
        <mxCell id="0" />
        <mxCell id="1" parent="0" />
        <mxCell id="WkajTZvk-8jXLpk7XBNK-1" value="Entity" style="whiteSpace=wrap;html=1;align=center;" vertex="1" parent="1">
          <mxGeometry x="-37" y="2" width="100" height="40" as="geometry" />
        </mxCell>
        <mxCell id="WkajTZvk-8jXLpk7XBNK-2" value="개체(Entity) : 세상의 사물이나 개념을 나타낸 것" style="text;html=1;align=center;verticalAlign=middle;resizable=0;points=[];autosize=1;strokeColor=none;fillColor=none;fontSize=16;" vertex="1" parent="1">
          <mxGeometry x="85" y="6.5" width="356" height="31" as="geometry" />
        </mxCell>
        <mxCell id="WkajTZvk-8jXLpk7XBNK-3" value="Attribute" style="ellipse;whiteSpace=wrap;html=1;align=center;" vertex="1" parent="1">
          <mxGeometry x="-37" y="72" width="100" height="40" as="geometry" />
        </mxCell>
        <mxCell id="WkajTZvk-8jXLpk7XBNK-5" value="속성(Attribute) : 개체가 가지고 있는 특성" style="text;html=1;align=center;verticalAlign=middle;resizable=0;points=[];autosize=1;strokeColor=none;fillColor=none;fontSize=16;" vertex="1" parent="1">
          <mxGeometry x="79" y="76.5" width="307" height="31" as="geometry" />
        </mxCell>
        <mxCell id="WkajTZvk-8jXLpk7XBNK-6" value="Relationship" style="shape=rhombus;perimeter=rhombusPerimeter;whiteSpace=wrap;html=1;align=center;" vertex="1" parent="1">
          <mxGeometry x="-47" y="132" width="120" height="60" as="geometry" />
        </mxCell>
        <mxCell id="WkajTZvk-8jXLpk7XBNK-7" value="관계(Relationship) : 개체와 개체 간의 관계" style="text;html=1;align=center;verticalAlign=middle;resizable=0;points=[];autosize=1;strokeColor=none;fillColor=none;fontSize=16;" vertex="1" parent="1">
          <mxGeometry x="79" y="146.5" width="319" height="31" as="geometry" />
        </mxCell>
        <mxCell id="WkajTZvk-8jXLpk7XBNK-8" value="ER 다이어그램" style="text;html=1;align=center;verticalAlign=middle;resizable=0;points=[];autosize=1;strokeColor=none;fillColor=none;fontSize=16;" vertex="1" parent="1">
          <mxGeometry x="-46" y="228" width="125" height="31" as="geometry" />
        </mxCell>
        <mxCell id="WkajTZvk-8jXLpk7XBNK-29" value="" style="edgeStyle=none;curved=1;rounded=0;orthogonalLoop=1;jettySize=auto;html=1;fontSize=12;startSize=8;endSize=8;" edge="1" parent="1" source="WkajTZvk-8jXLpk7XBNK-9" target="WkajTZvk-8jXLpk7XBNK-25">
          <mxGeometry relative="1" as="geometry" />
        </mxCell>
        <mxCell id="WkajTZvk-8jXLpk7XBNK-9" value="직원" style="whiteSpace=wrap;html=1;" vertex="1" parent="1">
          <mxGeometry x="-11" y="288" width="96" height="46" as="geometry" />
        </mxCell>
        <mxCell id="WkajTZvk-8jXLpk7XBNK-10" value="직원 번호" style="ellipse;whiteSpace=wrap;html=1;align=center;" vertex="1" parent="1">
          <mxGeometry x="-113" y="378" width="100" height="40" as="geometry" />
        </mxCell>
        <mxCell id="WkajTZvk-8jXLpk7XBNK-11" value="이름" style="ellipse;whiteSpace=wrap;html=1;align=center;" vertex="1" parent="1">
          <mxGeometry x="-3" y="378" width="100" height="40" as="geometry" />
        </mxCell>
        <mxCell id="WkajTZvk-8jXLpk7XBNK-12" value="직급" style="ellipse;whiteSpace=wrap;html=1;align=center;" vertex="1" parent="1">
          <mxGeometry x="107" y="378" width="100" height="40" as="geometry" />
        </mxCell>
        <mxCell id="WkajTZvk-8jXLpk7XBNK-13" value="전화번호" style="ellipse;whiteSpace=wrap;html=1;align=center;" vertex="1" parent="1">
          <mxGeometry x="137" y="254" width="100" height="40" as="geometry" />
        </mxCell>
        <mxCell id="WkajTZvk-8jXLpk7XBNK-15" value="" style="endArrow=none;html=1;rounded=0;fontSize=12;startSize=8;endSize=8;curved=1;exitX=0.5;exitY=0;exitDx=0;exitDy=0;" edge="1" parent="1" source="WkajTZvk-8jXLpk7XBNK-9" target="WkajTZvk-8jXLpk7XBNK-13">
          <mxGeometry relative="1" as="geometry">
            <mxPoint x="17" y="277" as="sourcePoint" />
            <mxPoint x="136" y="273" as="targetPoint" />
            <Array as="points">
              <mxPoint x="83" y="264" />
            </Array>
          </mxGeometry>
        </mxCell>
        <mxCell id="WkajTZvk-8jXLpk7XBNK-16" value="" style="endArrow=none;html=1;rounded=0;fontSize=12;startSize=8;endSize=8;curved=1;entryX=0.5;entryY=0;entryDx=0;entryDy=0;exitX=0.75;exitY=1;exitDx=0;exitDy=0;" edge="1" parent="1" source="WkajTZvk-8jXLpk7XBNK-9" target="WkajTZvk-8jXLpk7XBNK-12">
          <mxGeometry relative="1" as="geometry">
            <mxPoint x="85" y="319" as="sourcePoint" />
            <mxPoint x="245" y="319" as="targetPoint" />
          </mxGeometry>
        </mxCell>
        <mxCell id="WkajTZvk-8jXLpk7XBNK-30" value="" style="edgeStyle=none;curved=1;rounded=0;orthogonalLoop=1;jettySize=auto;html=1;fontSize=12;startSize=8;endSize=8;" edge="1" parent="1" source="WkajTZvk-8jXLpk7XBNK-17" target="WkajTZvk-8jXLpk7XBNK-25">
          <mxGeometry relative="1" as="geometry" />
        </mxCell>
        <mxCell id="WkajTZvk-8jXLpk7XBNK-17" value="부서" style="whiteSpace=wrap;html=1;" vertex="1" parent="1">
          <mxGeometry x="398" y="288" width="96" height="46" as="geometry" />
        </mxCell>
        <mxCell id="WkajTZvk-8jXLpk7XBNK-31" value="" style="edgeStyle=none;curved=1;rounded=0;orthogonalLoop=1;jettySize=auto;html=1;fontSize=12;startSize=8;endSize=8;exitX=0.5;exitY=1;exitDx=0;exitDy=0;entryX=0.5;entryY=0;entryDx=0;entryDy=0;" edge="1" parent="1" source="WkajTZvk-8jXLpk7XBNK-17" target="WkajTZvk-8jXLpk7XBNK-18">
          <mxGeometry relative="1" as="geometry">
            <mxPoint x="468" y="354" as="targetPoint" />
          </mxGeometry>
        </mxCell>
        <mxCell id="WkajTZvk-8jXLpk7XBNK-18" value="부서 번호" style="ellipse;whiteSpace=wrap;html=1;align=center;" vertex="1" parent="1">
          <mxGeometry x="337" y="375" width="100" height="40" as="geometry" />
        </mxCell>
        <mxCell id="WkajTZvk-8jXLpk7XBNK-19" value="부서명" style="ellipse;whiteSpace=wrap;html=1;align=center;" vertex="1" parent="1">
          <mxGeometry x="465" y="375" width="100" height="40" as="geometry" />
        </mxCell>
        <mxCell id="WkajTZvk-8jXLpk7XBNK-20" value="" style="endArrow=none;html=1;rounded=0;fontSize=12;startSize=8;endSize=8;curved=1;exitX=0.25;exitY=1;exitDx=0;exitDy=0;entryX=0.68;entryY=0.05;entryDx=0;entryDy=0;entryPerimeter=0;" edge="1" parent="1" source="WkajTZvk-8jXLpk7XBNK-9" target="WkajTZvk-8jXLpk7XBNK-10">
          <mxGeometry relative="1" as="geometry">
            <mxPoint x="155" y="300" as="sourcePoint" />
            <mxPoint x="315" y="300" as="targetPoint" />
          </mxGeometry>
        </mxCell>
        <mxCell id="WkajTZvk-8jXLpk7XBNK-21" value="" style="endArrow=none;html=1;rounded=0;fontSize=12;startSize=8;endSize=8;curved=1;exitX=0.5;exitY=1;exitDx=0;exitDy=0;entryX=0.5;entryY=0;entryDx=0;entryDy=0;" edge="1" parent="1" source="WkajTZvk-8jXLpk7XBNK-9" target="WkajTZvk-8jXLpk7XBNK-11">
          <mxGeometry relative="1" as="geometry">
            <mxPoint x="155" y="300" as="sourcePoint" />
            <mxPoint x="315" y="300" as="targetPoint" />
          </mxGeometry>
        </mxCell>
        <mxCell id="WkajTZvk-8jXLpk7XBNK-25" value="Relationship" style="shape=rhombus;perimeter=rhombusPerimeter;whiteSpace=wrap;html=1;align=center;" vertex="1" parent="1">
          <mxGeometry x="210" y="281" width="120" height="60" as="geometry" />
        </mxCell>
        <mxCell id="WkajTZvk-8jXLpk7XBNK-32" value="" style="edgeStyle=none;curved=1;rounded=0;orthogonalLoop=1;jettySize=auto;html=1;fontSize=12;startSize=8;endSize=8;exitX=0.5;exitY=1;exitDx=0;exitDy=0;entryX=0.5;entryY=0;entryDx=0;entryDy=0;" edge="1" parent="1" source="WkajTZvk-8jXLpk7XBNK-17" target="WkajTZvk-8jXLpk7XBNK-19">
          <mxGeometry relative="1" as="geometry">
            <mxPoint x="456" y="344" as="sourcePoint" />
            <mxPoint x="397" y="385" as="targetPoint" />
          </mxGeometry>
        </mxCell>
      </root>
    </mxGraphModel>
  </diagram>
</mxfile>
